<?xml version="1.0" encoding="utf-8"?>
<!-- Generator: Adobe Illustrator 18.0.0, SVG Export Plug-In . SVG Version: 6.00 Build 0)  -->
<!DOCTYPE svg PUBLIC "-//W3C//DTD SVG 1.1//EN" "http://www.w3.org/Graphics/SVG/1.1/DTD/svg11.dtd">
<svg version="1.1" id="Layer_1" xmlns="http://www.w3.org/2000/svg" xmlns:xlink="http://www.w3.org/1999/xlink" x="0px" y="0px"
	 viewBox="0 0 612 792" enable-background="new 0 0 612 792" xml:space="preserve">
<g>
	<g>
		<path fill="#94004B" d="M37.3,147c7.7,2.7,15.9,5.5,21.4,6.6c6,1.6,12.1,2.2,17.6,2.2c9.9,0.5,14.3-1.1,21.4-3.3
			c14.3-4.9,19.2-15.9,21.9-26.3c4.4-17,3.8-37.3-0.5-52.7c-2.2-6.6-7.1-15.4-13.7-20.3c-4.9-3.8-11-5.5-21.4-7.1
			c-5.5-0.5-26.3-0.5-82.8,0v138.2h36.2V147z M37.3,70.8c18.6-0.5,29.1,0,29.1,0c10.4,1.1,14.3,4.9,17,14.3c2.2,8.8,2.2,20.8,0,28.5
			c-1.1,3.8-3.8,10.4-9.9,12.6c-3.3,1.1-8.2,2.2-11.5,2.2c-3.3,0-5.5,0-7.1-0.5c-8.2-0.5-12.6-1.6-17.6-3.3V70.8z M305,46.6
			c-10.4,1.1-15.9,3.3-21.4,7.1c-6,4.9-11.5,13.2-13.2,20.3c-3.8,15.4-3.8,35.7,1.1,52.1c3.3,10.4,8.2,23,22.5,28
			c6,2.2,11,3.3,19.2,2.7c5.5-0.5,13.7-2.7,19.7-4.4c6-1.6,12.1-3.8,19.7-6.6v9.3h36.2V46.6C333.5,46.1,310.4,45.5,305,46.6z
			 M353.2,124.5c-6,1.6-14.3,3.3-23.6,3.8c-3.3,0-8.2-0.5-11.5-2.2c-6-2.2-8.8-8.8-10.4-12.6c-2.2-7.7-3.3-19.7-1.1-28.5
			c2.2-8.8,7.1-13.7,16.5-14.3c0,0,11.5-0.5,30.2,0V124.5z M178.3,108l35.7,46.6h48.8l-55.4-59.8c3.3-2.7,6.6-4.9,13.2-8.2
			c17-9.3,34-11.5,34-11.5V45c0,0-13.7,2.7-28.5,9.3c-19.7,8.2-33.5,19.2-37.3,21.9c-3.8,2.7-7.1,4.9-10.4,7.7V4.4H141v150.3h37.3
			V108z M256.1,386.7c0.5-0.5,1.1-1.1,1.1-1.1c19.2-40,35.1-92.1,35.1-92.1s-110.2-28.5-150.3-30.2c-21.9,11.5-47.2,35.1-64.7,52.7
			l-0.5,1.1c0,0,0-0.5,0-1.1c-1.1-2.2-6-9.3-8.2-12.6c-9.9-13.7-24.1-29.1-34.6-38.4c-6,0.5-12.1,1.6-16.5,2.2
			c-5.5,1.1-11.5,2.2-17.6,3.3v142.1l12.1-3.3c30.7-8.2,60.9-12.6,85.6-13.7c18.1-0.5,25.8-1.6,43.3,9.3
			c20.3,12.6,36.7,29.1,41.7,35.7c8.2,11-9.9,40.6-45,75.7c-26.9,26.9-60.3,45.5-76.2,53.8c-7.7,3.8-11.5,3.8-17.6,2.2
			c-13.7-4.9-30.2-13.2-43.3-21.4v178.8l48.3,19.2c1.6-2.2,3.3-4.4,4.9-7.1c25.8-37.3,42.8-90,43.9-93.8v-0.5v0.5
			c14.3,32.4,44.4,69.7,74,95.4l105.9-57.6c-4.9-46.1-15.4-95.4-25.8-122.3v-0.5h0.5c49.9-14.8,107.5-34,137.1-51.6v-90.5
			c-48.8-16.5-94.3-27.4-131.6-34C257.2,386.1,256.7,386.7,256.1,386.7z"/>
	</g>
</g>
</svg>
