<?xml version="1.0" encoding="utf-8"?>
<!-- Generator: Adobe Illustrator 17.0.1, SVG Export Plug-In . SVG Version: 6.00 Build 0)  -->
<!DOCTYPE svg PUBLIC "-//W3C//DTD SVG 1.1//EN" "http://www.w3.org/Graphics/SVG/1.1/DTD/svg11.dtd">
<svg version="1.1" id="Layer_1" xmlns="http://www.w3.org/2000/svg" xmlns:xlink="http://www.w3.org/1999/xlink" x="0px" y="0px"
	 width="117.227px" height="22.324px" viewBox="0 0 117.227 22.324" enable-background="new 0 0 117.227 22.324"
	 xml:space="preserve">
<polygon fill="#525D64" points="0.384,10.032 0.384,5.372 1.678,5.372 1.678,8.915 3.726,8.915 3.726,10.032 "/>
<rect x="0.384" y="1.136" fill="none" width="113.231" height="19.144"/>
<path fill="#525D64" d="M6.402,8.679h1.177c0,0-0.012-1.883-0.012-2.076C7.43,6.912,6.402,8.679,6.402,8.679 M7.557,10.01V9.508
	H5.959l-0.31,0.502H4.266l3.106-4.624h3.482v1.076H8.713v0.763h1.235v0.953H8.713v0.756h2.189v1.076
	C10.902,10.01,7.557,10.01,7.557,10.01z"/>
<rect x="0.384" y="1.136" fill="none" width="113.231" height="19.144"/>
<path fill="#525D64" d="M14.185,6.429h-0.774v1.08h0.755c0.416,0,0.581-0.209,0.581-0.539C14.747,6.68,14.588,6.429,14.185,6.429
	 M14.681,10.01l-0.754-1.559h-0.515v1.559h-1.261V5.385h2.069c1.083,0,1.803,0.41,1.803,1.507c0,0.692-0.324,1.124-0.834,1.354
	l0.926,1.764H14.681z"/>
<polygon fill="#525D64" points="17.319,10.01 17.319,5.386 20.859,5.386 20.859,6.462 18.587,6.462 18.587,7.078 19.956,7.078 
	19.956,8.141 18.587,8.141 18.587,8.934 20.906,8.934 20.906,10.01 "/>
<rect x="0.384" y="1.136" fill="none" width="113.231" height="19.144"/>
<path fill="#525D64" d="M24.198,6.429h-0.772v1.064h0.752c0.417,0,0.583-0.216,0.583-0.546C24.761,6.657,24.602,6.429,24.198,6.429
	 M24.694,10.01L23.94,8.451h-0.514v1.559h-1.262V5.385h2.068c1.084,0,1.803,0.41,1.803,1.507c0,0.692-0.323,1.124-0.833,1.354
	l0.926,1.764H24.694z"/>
<rect x="0.384" y="1.136" fill="none" width="113.231" height="19.144"/>
<path fill="#525D64" d="M30.345,10.01l-1.103-1.525c-0.204-0.284-0.602-0.879-0.72-1.083c0.032,0.204,0.04,0.818,0.04,1.194v1.414
	h-1.229V5.386h1.13l1.016,1.366c0.211,0.286,0.623,0.899,0.721,1.09c-0.032-0.203-0.041-0.818-0.041-1.194V5.386h1.23v4.624H30.345z
	"/>
<polygon fill="#525D64" points="32.758,10.01 32.758,5.386 36.299,5.386 36.299,6.462 34.025,6.462 34.025,7.078 35.392,7.078 
	35.392,8.141 34.025,8.141 34.025,8.934 36.345,8.934 36.345,10.01 "/>
<rect x="0.384" y="1.136" fill="none" width="113.231" height="19.144"/>
<path fill="#525D64" d="M39.239,10.047c-0.734,0-1.44-0.24-1.915-0.551l0.61-0.988c0.33,0.226,0.91,0.454,1.332,0.454
	c0.446,0,0.591-0.077,0.591-0.292c0-0.168-0.162-0.273-0.772-0.416c-1.1-0.253-1.625-0.552-1.625-1.461
	c0-0.858,0.694-1.436,1.793-1.436c0.772,0,1.331,0.188,1.811,0.526L40.455,6.87c-0.402-0.274-0.807-0.43-1.267-0.43
	c-0.377,0-0.469,0.118-0.469,0.279c0,0.17,0.163,0.248,0.747,0.384c1.144,0.273,1.649,0.623,1.649,1.475
	C41.115,9.619,40.33,10.047,39.239,10.047"/>
<rect x="0.384" y="1.136" fill="none" width="113.231" height="19.144"/>
<path fill="#1A171B" d="M49.548,7.166c-0.859,0-1.802,0.493-2.318,0.859v5.257c0.407,0.236,1.202,0.58,2.039,0.58
	c1.931,0,3.326-1.331,3.326-3.242C52.595,8.519,51.802,7.166,49.548,7.166 M49.268,15.621c-0.751,0-1.46-0.148-2.039-0.385v3.303
	c0.43,0.066,0.751,0.432,0.751,0.859c0,0.494-0.386,0.881-0.88,0.881h-0.751c-0.493,0-0.88-0.387-0.88-0.881V7.252
	c-0.429-0.064-0.751-0.429-0.751-0.858c0-0.494,0.387-0.881,0.88-0.881h0.751c0.366,0,0.665,0.215,0.794,0.516
	c0.665-0.343,1.502-0.623,2.404-0.623c3.24,0,4.808,2.125,4.808,5.214C54.355,13.496,52.164,15.621,49.268,15.621"/>
<rect x="0.384" y="1.136" fill="none" width="113.231" height="19.144"/>
<path fill="#1A171B" d="M60.667,6.974c-1.932,0-2.662,1.286-2.77,2.961L63.2,9.27C62.963,7.94,62.234,6.974,60.667,6.974
	 M63.994,10.75l-5.858,0.73c0.214,1.565,1.265,2.383,2.832,2.383c0.944,0,1.696-0.278,1.76-0.3c0.579-0.237,1.224,0.192,1.224,0.814
	c0,0.343-0.215,0.665-0.537,0.816c-0.064,0.021-1.094,0.428-2.446,0.428c-2.897,0-4.636-1.994-4.636-4.828V10.02
	c0-2.618,1.61-4.614,4.336-4.614c2.639,0,4.099,2.125,4.099,4.164v0.321C64.766,10.322,64.424,10.707,63.994,10.75"/>
<rect x="0.384" y="1.136" fill="none" width="113.231" height="19.144"/>
<path fill="#1A171B" d="M75.566,15.516h-0.754c-0.492,0-0.879-0.388-0.879-0.881V9.334c0-1.459-0.492-2.168-1.996-2.168
	c-1.352,0-2.424,0.902-2.832,1.31v6.159c0,0.493-0.385,0.881-0.879,0.881c-0.494,0-0.881-0.388-0.881-0.881V7.251
	c-0.429-0.063-0.75-0.405-0.75-0.857c0-0.493,0.387-0.88,0.881-0.88h0.75c0.428,0,0.793,0.301,0.858,0.73
	c0.75-0.473,1.716-0.839,2.853-0.839c2.49,0,3.757,1.482,3.757,3.929v4.441c0.429,0.043,0.751,0.409,0.751,0.859
	C76.445,15.128,76.058,15.516,75.566,15.516"/>
<rect x="0.385" y="1.136" fill="none" width="113.23" height="19.144"/>
<path fill="#1A171B" d="M81.855,15.455c-0.621,0-1.783-0.041-2.467-0.271c-0.371-0.124-0.623-0.477-0.58-0.871l0.062-0.725
	c0.041-0.455,0.396-0.788,0.849-0.788c0.499,0.021,0.851,0.393,0.83,0.893c0.436,0.061,0.934,0.061,1.307,0.061
	c0.746,0,1.576-0.227,1.576-1.097c0-0.623-0.125-0.747-0.726-0.954l-2.177-0.768c-0.912-0.332-1.866-0.912-1.866-2.55
	c0-1.845,1.575-2.8,3.297-2.8c0.519,0,1.679,0.021,2.425,0.269c0.374,0.125,0.581,0.479,0.56,0.872l-0.043,0.727
	c-0.021,0.455-0.394,0.787-0.848,0.787c-0.498-0.02-0.871-0.393-0.852-0.892c-0.414-0.061-0.891-0.061-1.243-0.061
	c-0.747,0-1.597,0.228-1.597,1.099c0,0.621,0.144,0.725,0.744,0.933l2.178,0.786c0.912,0.332,1.847,0.913,1.847,2.553
	C85.131,14.502,83.577,15.455,81.855,15.455"/>
<rect x="0.385" y="1.136" fill="none" width="113.23" height="19.144"/>
<path fill="#1A171B" d="M89.943,3.057L89.59,3.472c-0.187,0.227-0.455,0.352-0.746,0.352c-0.537,0-0.974-0.436-0.974-0.975
	c0-0.207,0.083-0.435,0.228-0.622l0.353-0.415c0.206-0.229,0.476-0.354,0.746-0.354c0.54,0,0.977,0.436,0.977,0.977
	C90.172,2.662,90.107,2.869,89.943,3.057 M89.009,15.353c-0.477,0-0.85-0.374-0.85-0.851V7.325
	c-0.416-0.062-0.725-0.415-0.725-0.829c0-0.477,0.371-0.851,0.849-0.851h0.726c0.477,0,0.85,0.374,0.85,0.851v8.006
	C89.859,14.979,89.486,15.353,89.009,15.353"/>
<rect x="0.384" y="1.136" fill="none" width="113.231" height="19.144"/>
<path fill="#1A171B" d="M97.068,7.166c-1.932,0-3.111,1.545-3.111,3.369c0,1.975,1.286,3.327,3.111,3.327
	c1.931,0,3.111-1.545,3.111-3.39C100.179,8.496,98.89,7.166,97.068,7.166 M97.068,15.621c-2.77,0-4.872-2.168-4.872-5.086
	c0-2.811,1.974-5.129,4.872-5.129c2.768,0,4.87,2.147,4.87,5.066C101.938,13.283,99.966,15.621,97.068,15.621"/>
<rect x="0.384" y="1.136" fill="none" width="113.231" height="19.144"/>
<path fill="#1A171B" d="M112.736,15.516h-0.752c-0.494,0-0.881-0.388-0.881-0.881V9.334c0-1.459-0.492-2.168-1.994-2.168
	c-1.352,0-2.426,0.902-2.834,1.31v6.159c0,0.493-0.385,0.881-0.879,0.881c-0.492,0-0.881-0.388-0.881-0.881V7.251
	c-0.428-0.063-0.75-0.405-0.75-0.857c0-0.493,0.387-0.88,0.881-0.88h0.75c0.43,0,0.795,0.301,0.859,0.73
	c0.75-0.473,1.716-0.839,2.854-0.839c2.489,0,3.756,1.482,3.756,3.929v4.441c0.429,0.043,0.75,0.409,0.75,0.859
	C113.615,15.128,113.23,15.516,112.736,15.516"/>
</svg>
