<?xml version="1.0" encoding="utf-8"?>
<!-- Generator: Adobe Illustrator 17.1.0, SVG Export Plug-In . SVG Version: 6.00 Build 0)  -->
<!DOCTYPE svg PUBLIC "-//W3C//DTD SVG 1.1//EN" "http://www.w3.org/Graphics/SVG/1.1/DTD/svg11.dtd">
<svg version="1.1" id="Layer_1" xmlns="http://www.w3.org/2000/svg" xmlns:xlink="http://www.w3.org/1999/xlink" x="0px" y="0px"
	 viewBox="22.5 288 590 216" enable-background="new 22.5 288 590 216" xml:space="preserve">
<g>
	<path fill="#173B4C" d="M44.2,481.6c0,0,0-43.4,0-77.3c14.7,0,120,0,120,0c25.1,0,34.1-20.5,34.1-34.1v-25.8
		c0-13.6-9-34.1-34.1-34.1H35.9c-2.2,0-4.4,0.9-5.9,2.4c-1.5,1.5-2.4,3.7-2.4,5.9v162.7h16.7V481.6 M44.2,327.3c14.7,0,120,0,120,0
		c7.3,0,11.9,2.4,14.7,7.7c2.4,4.6,2.4,9.5,2.4,9.5V370c0,0-0.2,4.8-2.4,9.5c-2.9,5.3-7.5,7.7-14.7,7.7c0,0-105.2,0-120,0
		C44.2,357.7,44.2,333.5,44.2,327.3L44.2,327.3z"/>
	<path fill="#173B4C" d="M386.8,370.2v-25.8c0-13.6-9-34.1-34.1-34.1H224.1c-4.6,0-8.4,3.7-8.4,8.4v77.1v77.1c0,4.6,3.7,8.4,8.4,8.4
		h128.6c25.1,0,34.1-20.5,34.1-34.1v-25.5c0-7-3.3-18.1-13.4-25.8c1.3-0.9,2.4-2,3.5-3.1C386.6,383.2,386.8,371.6,386.8,370.2
		L386.8,370.2 M232.7,327.3c14.7,0,120,0,120,0c7.3,0,11.9,2.4,14.7,7.7c2.4,4.6,2.4,9.5,2.4,9.5V370c0,2.9-1.8,17.2-25.8,17.2
		H232.7C232.7,359.7,232.7,333.7,232.7,327.3L232.7,327.3 M369.8,447.3c0,0,0,4.8-2.4,9.5c-2.9,5.3-7.5,7.7-14.7,7.7
		c0,0-105.2,0-120,0c0-6.4,0-32.4,0-60.1h111.4c24,0,25.8,14.5,25.8,17.4L369.8,447.3L369.8,447.3z"/>
	<path fill="#173B4C" d="M583.8,310.4v136.9c0,13.6-9,34.1-34.1,34.1H446.9c-25.1,0-34.1-20.5-34.1-34.1V310.4h17v136.9
		c0,0,0,5.1,2.4,9.5c2.9,5.3,7.5,7.7,14.7,7.7h102.8c7.3,0,11.9-2.4,14.7-7.7c2.4-4.6,2.4-9.5,2.4-9.5V310.4H583.8L583.8,310.4z"/>
</g>
</svg>
