<?xml version="1.0" encoding="utf-8"?>
<!-- Generator: Adobe Illustrator 19.0.1, SVG Export Plug-In . SVG Version: 6.00 Build 0)  -->
<svg version="1.1" id="Lag_1" xmlns="http://www.w3.org/2000/svg" xmlns:xlink="http://www.w3.org/1999/xlink" x="0px" y="0px"
	 viewBox="0 0 669.4 515" style="enable-background:new 0 0 669.4 515;" xml:space="preserve">
<style type="text/css">
	.st0{fill:#52BDB5;}
	.st1{fill:#00A398;}
	.st2{fill:#016061;}
</style>
<polygon class="st0" points="669.3,0 669.3,127.6 555.4,63.1 555.4,0 "/>
<polygon class="st1" points="334.7,0 334.8,63.1 224.5,0 "/>
<polygon class="st0" points="669.3,255.9 557.4,191.4 557.4,320.5 669.3,385.1 "/>
<polygon class="st1" points="108.4,62.8 222.1,127 222.9,256.8 109.2,192.6 "/>
<polygon class="st2" points="557.6,-0.3 557.6,62.7 669.3,127.6 669.4,256.4 445.8,127.3 445.8,-0.3 "/>
<polygon class="st0" points="220.9,128.8 334.8,63.1 334.8,0 446.6,0 446.6,127.6 222.9,256.8 "/>
<polygon class="st2" points="225.5,0 334.7,63.1 220.9,129.2 1.8,0 "/>
<polygon class="st2" points="669.3,384 669.2,513 445.6,383.8 557.3,319.3 "/>
<polygon class="st1" points="557.4,319.3 557.4,191.8 446.6,126 334.7,192.2 445.6,254.7 445.6,383.8 "/>
</svg>
